PathFileType	4	(X/Y/Z)	C:\Users\Basilio\Documents\Thesis Gigler\squatting_fais\c3dfiles\073\SLS_back_pre3\markers_experimental.trc
DataRate	CameraRate	NumFrames	NumMarkers	Units	OrigDataRate	OrigDataStartFrame	OrigNumFrames
200.000000	200.000000	4	61	mm	200.000000	987	1317
Frame#	Time	FHD			LBHD			RBHD			C7			T10			CLAV			LSHO			LUUPA			LMUPA			LDUPA			LLEP			LMEP			LRAD			LUL			LRFIN			RSHO			RUPA1			RMUPA			RDUPA			RLEP			RMEP			RUL			RUFIN			LASI			RASI			USACR			LSACR			RSACR			LTHI1			LTHI2			LTHI3			LTHI4			LLFC			LMFC			LTIB1			LTIB2			LTIB3			LTIB4			LLMAL			LMMAL			LHEE			LMT1			LMT2			LMT5			RTHI			RTHI2			RTHI3			RTHI4			RLFC			RMFC			RTIB1			RTIB2			RTIB3			RTIB4			RLMAL			RMMAL			RHEE			RMT1			RMT2			RMT5			RRAD			
		X1	Y1	Z1	X2	Y2	Z2	X3	Y3	Z3	X4	Y4	Z4	X5	Y5	Z5	X6	Y6	Z6	X7	Y7	Z7	X8	Y8	Z8	X9	Y9	Z9	X10	Y10	Z10	X11	Y11	Z11	X12	Y12	Z12	X13	Y13	Z13	X14	Y14	Z14	X15	Y15	Z15	X16	Y16	Z16	X17	Y17	Z17	X18	Y18	Z18	X19	Y19	Z19	X20	Y20	Z20	X21	Y21	Z21	X22	Y22	Z22	X23	Y23	Z23	X24	Y24	Z24	X25	Y25	Z25	X26	Y26	Z26	X27	Y27	Z27	X28	Y28	Z28	X29	Y29	Z29	X30	Y30	Z30	X31	Y31	Z31	X32	Y32	Z32	X33	Y33	Z33	X34	Y34	Z34	X35	Y35	Z35	X36	Y36	Z36	X37	Y37	Z37	X38	Y38	Z38	X39	Y39	Z39	X40	Y40	Z40	X41	Y41	Z41	X42	Y42	Z42	X43	Y43	Z43	X44	Y44	Z44	X45	Y45	Z45	X46	Y46	Z46	X47	Y47	Z47	X48	Y48	Z48	X49	Y49	Z49	X50	Y50	Z50	X51	Y51	Z51	X52	Y52	Z52	X53	Y53	Z53	X54	Y54	Z54	X55	Y55	Z55	X56	Y56	Z56	X57	Y57	Z57	X58	Y58	Z58	X59	Y59	Z59	X60	Y60	Z60	X61	Y61	Z61	

988	4.935	-60.79699325561525	1551.568603515625	-753.7971801757814	-194.8428344726563	1520.456909179688	-779.0960083007815	-218.4368286132813	1501.185791015625	-646.0076293945314	-245.8011779785157	1424.657348632813	-711.2862548828126	-425.661346435547	1148.5478515625	-738.1316528320314	-149.9642486572266	1305.704223632813	-712.1833496093751	-167.1456298828125	1381.089111328125	-842.0642089843752	-93.61648559570314	1314.091430664063	-946.499206542969	-52.12643814086915	1328.543823242188	-922.131286621094	-33.50205612182618	1283.684936523438	-959.3659667968752	69.61703491210939	1254.692749023438	-964.8642578125002	63.86213302612306	1197.25732421875	-923.8903808593752	326.5026855468751	1274.208862304688	-845.262878417969	332.4771728515626	1273.015380859375	-919.7986450195315	408.8030090332032	1282.227661132813	-835.5822753906252	-155.2631378173828	1363.156494140625	-576.9096069335939	-80.20297241210939	1257.094970703125	-473.1724243164064	-39.12236404418946	1275.864501953125	-489.3924560546876	-19.7108211517334	1223.845703125	-466.6320190429689	71.13394927978517	1201.044921875	-465.8135375976564	66.34870910644533	1149.15966796875	-530.7483520507814	332.7500000000001	1241.885864257813	-508.7918395996095	413.0456848144532	1262.729370117188	-585.7530517578126	-334.9141540527344	930.1181640625002	-855.903259277344	-337.2262573242188	954.8425903320315	-613.4891357421876	-492.2783203125001	1048.109741210938	-737.1212768554689	-509.3866577148439	1020.534973144531	-762.5144653320314	-516.6509399414064	1025.74658203125	-706.3231811523439	-349.3572998046876	623.6826171875001	-917.1075439453127	-300.9804077148438	554.1370239257814	-901.918884277344	-261.2084960937501	564.1690063476564	-875.351989746094	-323.6570434570313	499.3385009765626	-891.5913085937502	-329.9477233886719	454.1165771484376	-892.4333496093752	-332.2818603515626	451.8437805175782	-755.3366088867189	-483.3984680175782	354.6337585449219	-834.595153808594	-535.2911987304689	398.6163024902345	-889.3791503906252	-533.9299316406251	361.4699707031251	-866.5640258789065	-609.5814208984376	347.7467956542969	-831.339782714844	-737.1938476562501	383.1982116699219	-859.7886962890627	-709.2391357421876	384.0268554687501	-774.048278808594	-770.7163696289065	444.1270446777345	-821.2319946289065	-759.7656860351564	226.8123626708985	-759.7653198242189	-762.2260742187501	220.6498718261719	-798.7070922851565	-791.8736572265627	247.3902435302735	-851.4921875000002	-364.6435241699219	736.1476440429689	-540.6154785156251	-309.9301452636719	698.6848754882814	-545.2149047851564	-280.0069885253907	712.1594238281251	-551.4126586914064	-306.1854248046876	618.8312988281251	-572.1574707031251	-246.9465789794922	491.4222717285157	-599.6592407226564	-243.1717681884766	495.0516357421876	-727.4690551757814	-235.3842315673829	338.6547851562501	-706.2765502929689	-274.0135192871094	256.6274719238282	-648.8148803710939	-252.858871459961	254.9356384277344	-691.3888549804689	-281.7946472167969	219.9820098876954	-727.7182617187501	-356.2692260742188	95.9407424926758	-686.0623779296876	-348.0384826660157	129.3610534667969	-771.3198852539065	-430.4041748046876	81.60133361816408	-743.7473754882814	-206.5063171386719	55.99325180053712	-760.1032714843751	-206.0390930175782	51.4700050354004	-719.7958984375001	-248.5959167480469	34.14831924438477	-670.3048095703126	320.4353027343751	1238.432495117188	-580.4967651367189	
989	4.94	-61.70706176757814	1553.404663085938	-753.4619140625001	-195.5808105468751	1522.213012695313	-779.015075683594	-219.0708923339844	1502.82373046875	-646.0469970703126	-246.4343719482422	1426.286743164063	-711.2123413085939	-425.4313354492189	1149.615966796875	-738.0770874023439	-150.4054412841797	1307.483276367188	-712.0404052734376	-167.5814361572266	1382.732788085938	-842.0234375000002	-94.24179077148439	1315.691284179688	-946.482849121094	-52.64440155029298	1330.2529296875	-922.143981933594	-33.77636337280274	1285.450561523438	-959.3605957031252	69.36930084228517	1256.37109375	-964.9191894531252	63.49978256225587	1198.931274414063	-924.138122558594	326.0724792480469	1276.105102539063	-845.2610473632815	332.0451965332032	1275.047241210938	-919.8335571289065	408.6374816894532	1284.195556640625	-835.764099121094	-155.7520446777344	1364.677368164063	-576.7390747070314	-80.67215728759767	1258.594116210938	-473.1217651367189	-39.57477951049805	1277.34912109375	-489.306854248047	-20.12739372253418	1225.350341796875	-466.6018371582032	70.80635833740236	1202.49951171875	-465.694549560547	65.88894653320314	1150.802124023438	-530.5445556640626	332.2419738769532	1243.435180664063	-508.8366088867189	412.5904541015626	1264.319702148438	-585.8758544921876	-334.3424377441407	931.5582275390627	-855.846130371094	-336.7023925781251	955.8345947265627	-613.4470214843751	-491.9822387695314	1048.95703125	-737.1361694335939	-508.9839782714845	1021.545104980469	-762.5942382812501	-516.1702880859376	1026.54443359375	-706.3192749023439	-348.3716125488282	624.9539184570314	-917.3026123046877	-300.1058959960938	555.2852783203126	-902.1379394531252	-260.2749328613282	565.3968505859376	-875.4488525390627	-322.7611694335938	500.4685058593751	-891.9082031250002	-329.1023864746094	455.3968811035157	-892.6538696289065	-331.4522399902344	452.9822387695314	-755.5993041992189	-482.4885559082032	355.8331298828126	-834.5515747070315	-534.5599365234376	399.6594848632814	-889.572692871094	-533.2271118164064	362.3288879394532	-866.7834472656252	-608.6394042968751	348.5458679199219	-831.2869262695315	-736.2123413085939	384.166229248047	-859.8756103515627	-708.2554321289064	384.7524414062501	-774.1665649414065	-769.9324951171877	444.8804931640626	-821.2000732421877	-758.5675659179689	227.5625610351563	-760.2137451171876	-761.0748901367189	221.3558349609376	-798.996520996094	-790.9342041015627	248.1298980712891	-851.4357910156252	-364.7080993652344	736.8018188476564	-540.6481323242189	-310.0967407226563	699.1623535156251	-545.1947631835939	-280.1596374511719	712.4754638671876	-551.3067626953126	-306.6175537109376	619.2853393554689	-572.2406005859376	-247.6736145019532	491.5960693359376	-599.6313476562501	-243.7176513671876	495.2386474609376	-727.4755249023439	-235.8541717529297	338.7716674804688	-706.1825561523439	-274.4522705078126	256.5663146972657	-648.3883056640626	-253.1220397949219	255.0546875000001	-691.4113769531251	-281.9974060058594	220.0620422363282	-727.7772216796876	-356.3751831054688	96.03022003173831	-686.1717529296876	-348.0987548828126	129.2928466796875	-771.5029296875002	-430.4031677246095	81.63130950927736	-743.8142089843751	-206.5091094970704	55.93883895874025	-760.1236572265626	-206.0386199951172	51.47672271728517	-719.7698974609376	-248.5884399414063	34.19840240478516	-670.3208007812501	320.0954284667969	1239.879272460938	-580.4581909179689	
990	4.945	-59.60347366333009	1555.629028320313	-753.5153808593751	-196.1694030761719	1523.953979492188	-778.9392089843752	-219.7841186523438	1504.49560546875	-645.8859863281251	-247.0199432373047	1427.73291015625	-711.1240234375001	-425.3926696777345	1150.583251953125	-737.9611206054689	-150.8119049072266	1309.131958007813	-711.9552612304689	-168.1648559570313	1384.245239257813	-842.0843505859377	-94.79516601562501	1317.209716796875	-946.434753417969	-53.22454833984376	1331.89990234375	-922.1699218750002	-34.41614151000977	1287.086669921875	-959.353210449219	68.80342864990236	1258.180053710938	-964.9005126953127	63.14380264282228	1200.602294921875	-924.2090454101565	325.5853881835938	1277.945068359375	-845.304382324219	331.4037170410157	1276.805908203125	-919.7566528320315	407.7921447753907	1286.107543945313	-835.555114746094	-156.3178253173828	1366.376831054688	-576.6105957031251	-81.14866638183595	1260.103759765625	-473.1517333984376	-39.98812103271485	1278.917724609375	-489.1908569335939	-20.57954216003418	1226.854370117188	-466.5762023925782	70.3375930786133	1204.066772460938	-465.7528686523439	65.4564666748047	1152.337280273438	-530.6890869140626	331.8449096679688	1245.05419921875	-508.9223937988282	412.186248779297	1265.950805664063	-585.8727416992189	-333.5319519042969	932.8371582031252	-855.7230224609377	-336.2278442382813	956.7794189453127	-613.3714599609376	-491.650604248047	1049.918212890625	-737.0981445312501	-508.6565856933595	1022.407958984375	-762.6530151367189	-515.7995605468751	1027.3017578125	-706.3540039062501	-347.6521606445313	626.1712036132814	-917.6245727539065	-299.2567443847657	556.4172973632814	-902.4376220703127	-259.4735412597657	566.5080566406251	-875.687927246094	-322.0396118164063	501.771942138672	-892.0947875976565	-328.1912231445313	456.4403381347657	-892.7985839843752	-330.5730285644532	454.1294860839845	-755.8510742187501	-481.4819946289064	356.7466735839844	-834.8128051757815	-533.6040039062501	400.6331787109376	-889.7476196289065	-531.8481445312501	363.1155700683594	-866.6756591796877	-607.7879028320314	349.4836120605469	-831.2553710937502	-735.3484497070314	384.8920898437501	-859.923522949219	-707.3909912109376	385.4638977050782	-774.249938964844	-769.1306152343752	445.605194091797	-821.1084594726565	-757.4481811523439	228.2436676025391	-760.1664428710939	-760.2124633789064	221.9473114013672	-799.163513183594	-790.0671386718752	248.9924621582032	-851.5635986328127	-364.7113037109376	737.4460449218751	-540.7001342773439	-310.3130187988282	699.6907348632814	-545.2544555664064	-280.2833251953126	712.7854614257814	-551.2650146484376	-307.0029907226563	619.7958374023439	-572.2553710937501	-248.3604278564454	491.8471679687501	-599.5964965820314	-244.4314880371094	495.4663696289064	-727.4877929687501	-236.3333740234376	338.9254455566407	-706.2238159179689	-275.2564392089844	256.4756774902344	-648.9307861328126	-252.9942474365235	255.1169891357422	-690.9952392578126	-282.3914489746094	220.1531524658204	-727.7943725585939	-356.4421081542969	96.13751220703128	-686.2425537109376	-348.1435546875001	129.2599487304688	-771.615173339844	-430.3778076171876	81.61878204345705	-743.8664550781251	-206.555160522461	55.85194396972658	-760.2026367187501	-206.0486602783204	51.4463233947754	-719.8598632812501	-248.5930480957032	34.21069717407227	-670.3161010742189	319.6001281738282	1241.54541015625	-580.5309448242189	
991	4.95	-62.82625579833986	1557.074462890625	-753.1928100585939	-197.0082092285157	1525.558715820313	-778.8653564453127	-220.5729217529297	1506.1875	-645.7495727539064	-247.6542968750001	1429.370971679688	-711.0463256835939	-425.3647766113282	1151.58154296875	-737.8487548828126	-151.1993408203125	1310.977905273438	-711.9227294921876	-168.6585845947266	1385.962768554688	-842.025085449219	-95.23654174804689	1318.92236328125	-946.4462890625002	-53.78517913818361	1333.4560546875	-922.2150878906252	-34.70605087280274	1288.711547851563	-959.3374023437502	68.36959075927736	1259.868774414063	-964.9509277343752	62.529598236084	1202.4296875	-924.3707275390627	325.1103820800782	1279.85791015625	-845.3587646484377	330.9403686523438	1278.798095703125	-919.9407958984377	407.6733398437501	1287.951782226563	-835.8498535156252	-156.7769927978516	1367.8583984375	-576.4328613281251	-81.61809539794923	1261.611206054688	-473.010711669922	-40.41946029663087	1280.402709960938	-489.1011657714845	-21.03107643127442	1228.433227539063	-466.505340576172	69.9648895263672	1205.634521484375	-465.6296691894532	65.0335159301758	1153.976440429688	-530.6515502929689	331.3979797363282	1246.615112304688	-508.8692626953126	411.674285888672	1267.484008789063	-586.0083007812501	-332.8735961914063	934.238464355469	-855.7375488281252	-335.7803344726563	957.6717529296877	-613.3653564453126	-491.253631591797	1050.87353515625	-737.0549316406251	-508.1116943359376	1023.192810058594	-762.6282958984376	-515.3576049804689	1028.130493164063	-706.3523559570314	-346.7706604003907	627.4720458984376	-917.7316894531252	-298.4982299804688	557.7468872070314	-902.6714477539065	-257.8244323730469	568.1223754882814	-876.5781860351565	-321.2163391113282	502.8275146484376	-892.3436279296877	-327.2410888671876	457.6227111816407	-892.9248046875002	-329.6676025390626	455.2152404785157	-756.1182861328126	-480.6153259277345	357.7844543457032	-835.0831298828127	-532.7156982421876	401.5689392089845	-889.847839355469	-531.6436767578126	364.3124389648438	-867.2515869140627	-606.9024047851564	350.3972778320313	-831.1829833984377	-734.4338989257814	385.6734619140626	-859.8047485351565	-706.4725952148439	386.2100524902345	-774.3013305664065	-768.2117919921877	446.3226318359376	-821.0601196289065	-756.5325927734376	228.936752319336	-760.1242065429689	-758.9544067382814	222.6518096923829	-799.1348876953127	-788.9931640625002	249.6421203613282	-851.8074951171877	-364.7892761230469	738.1171875000001	-540.8162841796876	-310.5391540527344	700.1856079101564	-545.2683105468751	-280.4183044433594	713.1138916015626	-551.2000122070314	-307.4469909667969	620.2598266601564	-572.3594970703126	-249.0972900390626	492.0842895507814	-599.4993286132814	-245.1504058837891	495.6649475097657	-727.5042724609376	-236.7664337158204	339.1490173339844	-706.3900756835939	-275.6460266113282	256.4858093261719	-648.3795166015626	-253.3097229003907	255.3092803955079	-691.0465087890626	-282.5736694335938	220.2809753417969	-727.8381347656251	-356.4880065917969	96.20848083496097	-686.3010253906251	-348.2342529296876	129.2546691894532	-771.765808105469	-430.4000854492189	81.62359619140626	-743.8445434570314	-206.5612792968751	55.80662918090822	-760.2269897460939	-206.0376739501954	51.43098831176759	-719.8956909179689	-248.5717315673829	34.22115707397462	-670.3560791015626	319.1903381347657	1242.970947265625	-580.7546997070314	
